<svg viewBox="0 0 800 900" xmlns="http://www.w3.org/2000/svg">
  <!-- Stadtgrenze / Hintergrund -->
  <path d="M400,55 L510,65 L600,105 L690,170 L735,270 L745,380 L740,480 L695,585 L640,665 L555,730 L480,765 L390,780 L310,770 L220,740 L150,680 L100,600 L65,510 L50,410 L55,310 L80,220 L115,145 L175,90 L255,60 L330,52 Z" fill="#E8E4E0" stroke="#D1CDC9" stroke-width="2" />

  <!-- Interaktive Viertel (farbig nach ETW-Preisstufe Q1/2026) -->
  <g class="interactive-districts">
    <!-- ZENTRUM -->
    <path id="pluggendorf"   d="M338,262 L395,245 L388,325 L310,318 Z" fill="#1A5C4A" stroke="#D1CDC9" stroke-width="1" stroke-linejoin="round" />
    <path id="hafen-zentrum" d="M395,245 L452,256 L465,335 L388,325 Z" fill="#1A5C4A" stroke="#D1CDC9" stroke-width="1" stroke-linejoin="round" />
    <path id="altstadt-dom"  d="M388,325 L465,335 L450,390 L380,400 Z" fill="#052E26" stroke="#D1CDC9" stroke-width="1" stroke-linejoin="round" />
    <path id="kreuzviertel"  d="M310,318 L388,325 L380,400 L315,378 Z" fill="#052E26" stroke="#D1CDC9" stroke-width="1" stroke-linejoin="round" />

    <!-- INNERER RING -->
    <path id="aaseestadt"  d="M280,270 L338,262 L310,318 L315,378 L275,390 L265,340 Z" fill="#3D8B6E" stroke="#D1CDC9" stroke-width="1" stroke-linejoin="round" />
    <path id="sentrup"     d="M275,390 L315,378 L380,400 L450,390 L430,440 L365,465 L270,460 L215,440 Z" fill="#1A5C4A" stroke="#D1CDC9" stroke-width="1" stroke-linejoin="round" />
    <path id="mauritz"     d="M452,256 L520,275 L540,430 L500,465 L430,440 L450,390 L465,335 Z" fill="#1A5C4A" stroke="#D1CDC9" stroke-width="1" stroke-linejoin="round" />
    <path id="gievenbeck"  d="M130,270 L280,270 L265,340 L275,390 L215,440 L195,370 Z" fill="#3D8B6E" stroke="#D1CDC9" stroke-width="1" stroke-linejoin="round" />

    <!-- ÄUSSERER RING -->
    <path id="nienberge"   d="M330,52 L255,60 L175,90 L115,145 L80,220 L130,270 L280,270 L338,262 Z" fill="#7CB89E" stroke="#D1CDC9" stroke-width="1" stroke-linejoin="round" />
    <path id="kinderhaus"  d="M330,52 L400,55 L465,62 L452,256 L395,245 L338,262 Z" fill="#7CB89E" stroke="#D1CDC9" stroke-width="1" stroke-linejoin="round" />
    <path id="coerde"      d="M465,62 L510,65 L600,105 L520,275 L452,256 Z" fill="#C5DDD1" stroke="#D1CDC9" stroke-width="1" stroke-linejoin="round" />
    <path id="handorf"     d="M600,105 L690,170 L735,270 L745,380 L740,480 L540,430 L520,275 Z" fill="#7CB89E" stroke="#D1CDC9" stroke-width="1" stroke-linejoin="round" />
    <path id="gremmendorf" d="M540,430 L740,480 L730,490 L695,585 L540,500 L500,465 Z" fill="#3D8B6E" stroke="#D1CDC9" stroke-width="1" stroke-linejoin="round" />
    <path id="wolbeck"     d="M540,500 L695,585 L640,665 L555,730 L490,640 Z" fill="#7CB89E" stroke="#D1CDC9" stroke-width="1" stroke-linejoin="round" />
    <path id="angelmodde"  d="M430,440 L500,465 L540,500 L490,640 L440,555 Z" fill="#7CB89E" stroke="#D1CDC9" stroke-width="1" stroke-linejoin="round" />
    <path id="hiltrup"     d="M270,460 L365,465 L430,440 L440,555 L490,640 L555,730 L480,765 L390,780 L310,770 Z" fill="#7CB89E" stroke="#D1CDC9" stroke-width="1" stroke-linejoin="round" />
    <path id="amelsbueren" d="M215,440 L270,460 L310,770 L220,740 L150,680 L100,600 L65,510 L68,490 L140,465 Z" fill="#7CB89E" stroke="#D1CDC9" stroke-width="1" stroke-linejoin="round" />
    <path id="roxel"       d="M80,220 L130,270 L195,370 L215,440 L140,465 L68,490 L50,410 L55,310 Z" fill="#7CB89E" stroke="#D1CDC9" stroke-width="1" stroke-linejoin="round" />
  </g>

  <!-- Viertel-Labels -->
  <g class="district-labels" font-family="'DM Sans', system-ui, sans-serif" fill="#333">
    <!-- Zentrum -->
    <text text-anchor="middle" font-size="9" font-weight="500"><tspan x="358" y="290">Pluggen-</tspan><tspan x="358" y="301">dorf</tspan></text>
    <text text-anchor="middle" font-size="9" font-weight="500"><tspan x="425" y="292">Hafen</tspan></text>
    <text text-anchor="middle" font-size="9" font-weight="500"><tspan x="420" y="365">Altstadt</tspan></text>
    <text text-anchor="middle" font-size="8" font-weight="500"><tspan x="348" y="348">Kreuz-</tspan><tspan x="348" y="358">viertel</tspan></text>

    <!-- Innerer Ring -->
    <text text-anchor="middle" font-size="8" font-weight="500"><tspan x="305" y="328">Aasee</tspan></text>
    <text text-anchor="middle" font-size="10" font-weight="500"><tspan x="350" y="432">Sentrup</tspan></text>
    <text text-anchor="middle" font-size="11" font-weight="500"><tspan x="490" y="365">Mauritz</tspan></text>
    <text text-anchor="middle" font-size="10" font-weight="500"><tspan x="218" y="340">Gieven-</tspan><tspan x="218" y="353">beck</tspan></text>

    <!-- Äußerer Ring -->
    <text text-anchor="middle" font-size="13" font-weight="500"><tspan x="218" y="172">Nienberge</tspan></text>
    <text text-anchor="middle" font-size="11" font-weight="500"><tspan x="400" y="160">Kinderhaus</tspan></text>
    <text text-anchor="middle" font-size="11" font-weight="500"><tspan x="515" y="175">Coerde</tspan></text>
    <text text-anchor="middle" font-size="14" font-weight="500"><tspan x="645" y="315">Handorf</tspan></text>
    <text text-anchor="middle" font-size="11" font-weight="500"><tspan x="625" y="502">Gremmen-</tspan><tspan x="625" y="516">dorf</tspan></text>
    <text text-anchor="middle" font-size="12" font-weight="500"><tspan x="590" y="632">Wolbeck</tspan></text>
    <text text-anchor="middle" font-size="9" font-weight="500"><tspan x="490" y="528">Angel-</tspan><tspan x="490" y="540">modde</tspan></text>
    <text text-anchor="middle" font-size="14" font-weight="500"><tspan x="405" y="660">Hiltrup</tspan></text>
    <text text-anchor="middle" font-size="12" font-weight="500"><tspan x="190" y="618">Amels-</tspan><tspan x="190" y="633">büren</tspan></text>
    <text text-anchor="middle" font-size="11" font-weight="500"><tspan x="128" y="376">Roxel</tspan></text>
  </g>
</svg>
